<mxfile host="app.diagrams.net" modified="2023-10-13T16:05:55.374Z" agent="Mozilla/5.0 (Windows NT 10.0; Win64; x64) AppleWebKit/537.36 (KHTML, like Gecko) Chrome/117.0.0.0 Safari/537.36" etag="lKPW0CUMG973FziJU2AJ" version="22.0.4" type="device" pages="3">
  <diagram name="NFR1" id="PePSlJD-UdtvMw4tOFdM">
    <mxGraphModel dx="2611" dy="1162" grid="0" gridSize="10" guides="1" tooltips="1" connect="1" arrows="1" fold="1" page="0" pageScale="1" pageWidth="827" pageHeight="1169" math="0" shadow="0">
      <root>
        <mxCell id="0" />
        <mxCell id="1" parent="0" />
        <mxCell id="v_YtapICCbrFL_BmW7Hf-1" value="" style="rounded=0;whiteSpace=wrap;html=1;" vertex="1" parent="1">
          <mxGeometry x="-496" y="-260" width="360" height="600" as="geometry" />
        </mxCell>
        <mxCell id="v_YtapICCbrFL_BmW7Hf-2" value="&lt;font style=&quot;font-size: 16px;&quot;&gt;Освітленість&lt;/font&gt;" style="rounded=0;whiteSpace=wrap;html=1;fillColor=none;" vertex="1" parent="1">
          <mxGeometry x="-427.2258966064453" y="-45.275550842285156" width="222.47" height="40" as="geometry" />
        </mxCell>
        <mxCell id="v_YtapICCbrFL_BmW7Hf-3" value="&lt;font style=&quot;font-size: 16px;&quot;&gt;Психологічно-емоц. стан&lt;/font&gt;" style="rounded=0;whiteSpace=wrap;html=1;fillColor=#3399FF;strokeColor=#001DBC;fontColor=#ffffff;" vertex="1" parent="1">
          <mxGeometry x="-428.51589660644527" y="8.724449157714844" width="223.76" height="40" as="geometry" />
        </mxCell>
        <mxCell id="v_YtapICCbrFL_BmW7Hf-4" value="" style="rounded=0;whiteSpace=wrap;html=1;" vertex="1" parent="1">
          <mxGeometry x="24.529999999999973" y="-260" width="360" height="600" as="geometry" />
        </mxCell>
        <mxCell id="v_YtapICCbrFL_BmW7Hf-5" value="&lt;font style=&quot;font-size: 24px;&quot;&gt;Психологічно-емоціональна стабільність&lt;/font&gt;" style="text;html=1;strokeColor=none;fillColor=none;align=center;verticalAlign=middle;whiteSpace=wrap;rounded=0;fontSize=36;" vertex="1" parent="1">
          <mxGeometry x="38.64410339355459" y="-221.99555084228518" width="334.97" height="160" as="geometry" />
        </mxCell>
        <mxCell id="v_YtapICCbrFL_BmW7Hf-6" value="" style="ellipse;whiteSpace=wrap;html=1;" vertex="1" parent="1">
          <mxGeometry x="288" y="-253.72000000000003" width="20" height="20" as="geometry" />
        </mxCell>
        <mxCell id="v_YtapICCbrFL_BmW7Hf-7" value="" style="ellipse;whiteSpace=wrap;html=1;" vertex="1" parent="1">
          <mxGeometry x="318" y="-253.72000000000003" width="20" height="20" as="geometry" />
        </mxCell>
        <mxCell id="v_YtapICCbrFL_BmW7Hf-8" value="" style="ellipse;whiteSpace=wrap;html=1;strokeColor=#3399FF;" vertex="1" parent="1">
          <mxGeometry x="348" y="-253.72000000000003" width="20" height="20" as="geometry" />
        </mxCell>
        <mxCell id="v_YtapICCbrFL_BmW7Hf-9" value="" style="ellipse;whiteSpace=wrap;html=1;" vertex="1" parent="1">
          <mxGeometry x="-226" y="-250" width="20" height="20" as="geometry" />
        </mxCell>
        <mxCell id="v_YtapICCbrFL_BmW7Hf-10" value="" style="ellipse;whiteSpace=wrap;html=1;" vertex="1" parent="1">
          <mxGeometry x="-196" y="-250" width="20" height="20" as="geometry" />
        </mxCell>
        <mxCell id="v_YtapICCbrFL_BmW7Hf-11" value="" style="ellipse;whiteSpace=wrap;html=1;strokeColor=#3399FF;" vertex="1" parent="1">
          <mxGeometry x="-166" y="-250" width="20" height="20" as="geometry" />
        </mxCell>
        <mxCell id="v_YtapICCbrFL_BmW7Hf-12" value="" style="endArrow=classic;html=1;rounded=0;exitX=1;exitY=0.5;exitDx=0;exitDy=0;entryX=0;entryY=0.5;entryDx=0;entryDy=0;" edge="1" parent="1" source="v_YtapICCbrFL_BmW7Hf-3" target="v_YtapICCbrFL_BmW7Hf-4">
          <mxGeometry width="50" height="50" relative="1" as="geometry">
            <mxPoint x="-546" y="-80" as="sourcePoint" />
            <mxPoint x="-496" y="-130" as="targetPoint" />
          </mxGeometry>
        </mxCell>
        <mxCell id="v_YtapICCbrFL_BmW7Hf-13" value="&lt;b&gt;Меню&lt;/b&gt;" style="text;html=1;strokeColor=none;fillColor=none;align=center;verticalAlign=middle;whiteSpace=wrap;rounded=0;fontSize=36;" vertex="1" parent="1">
          <mxGeometry x="-448.4958966064453" y="-121.27555084228516" width="265" height="60" as="geometry" />
        </mxCell>
        <mxCell id="v_YtapICCbrFL_BmW7Hf-14" value="&lt;font style=&quot;font-size: 16px;&quot;&gt;Профіль&lt;/font&gt;" style="rounded=0;whiteSpace=wrap;html=1;fillColor=none;" vertex="1" parent="1">
          <mxGeometry x="-427.2258966064453" y="61.724449157714844" width="223.76" height="40" as="geometry" />
        </mxCell>
        <mxCell id="v_YtapICCbrFL_BmW7Hf-15" value="&lt;div style=&quot;&quot;&gt;&lt;span style=&quot;font-size: 14px; background-color: initial;&quot;&gt;Емоційна стійкість&lt;/span&gt;&lt;/div&gt;&lt;font style=&quot;font-size: 14px;&quot;&gt;&lt;div style=&quot;&quot;&gt;&lt;span style=&quot;background-color: initial;&quot;&gt;Здатність адаптуватися&lt;/span&gt;&lt;/div&gt;&lt;div style=&quot;&quot;&gt;&lt;span style=&quot;background-color: initial;&quot;&gt;Саморегуляція&lt;/span&gt;&lt;/div&gt;&lt;div style=&quot;&quot;&gt;&lt;span style=&quot;background-color: initial;&quot;&gt;Психологічна витривалість&lt;/span&gt;&lt;/div&gt;&lt;/font&gt;" style="rounded=0;whiteSpace=wrap;html=1;align=center;" vertex="1" parent="1">
          <mxGeometry x="86.6341033935546" y="-8.995550842285184" width="239" height="137" as="geometry" />
        </mxCell>
        <mxCell id="v_YtapICCbrFL_BmW7Hf-16" value="&lt;font style=&quot;font-size: 24px;&quot;&gt;&lt;b&gt;Мої дані&lt;/b&gt;&lt;/font&gt;" style="text;html=1;strokeColor=none;fillColor=none;align=center;verticalAlign=middle;whiteSpace=wrap;rounded=0;" vertex="1" parent="1">
          <mxGeometry x="150.5341033935547" y="-52.99555084228518" width="108" height="30" as="geometry" />
        </mxCell>
        <mxCell id="v_YtapICCbrFL_BmW7Hf-17" value="&lt;font style=&quot;font-size: 16px;&quot;&gt;Профіль&lt;/font&gt;" style="rounded=0;whiteSpace=wrap;html=1;fillColor=#3399FF;" vertex="1" parent="1">
          <mxGeometry x="94.24410339355472" y="267.0044491577148" width="223.76" height="40" as="geometry" />
        </mxCell>
        <mxCell id="v_YtapICCbrFL_BmW7Hf-18" value="&lt;font style=&quot;font-size: 16px;&quot;&gt;Меню&lt;/font&gt;" style="rounded=0;whiteSpace=wrap;html=1;fillColor=#3399FF;" vertex="1" parent="1">
          <mxGeometry x="94.24410339355472" y="210.00444915771482" width="223.76" height="40" as="geometry" />
        </mxCell>
        <mxCell id="v_YtapICCbrFL_BmW7Hf-19" value="" style="endArrow=classic;html=1;rounded=0;exitX=0;exitY=0.5;exitDx=0;exitDy=0;entryX=1.001;entryY=0.825;entryDx=0;entryDy=0;entryPerimeter=0;" edge="1" parent="1" source="v_YtapICCbrFL_BmW7Hf-18" target="v_YtapICCbrFL_BmW7Hf-1">
          <mxGeometry width="50" height="50" relative="1" as="geometry">
            <mxPoint x="53.53410339355469" y="131.72444915771484" as="sourcePoint" />
            <mxPoint x="103.53410339355469" y="81.72444915771484" as="targetPoint" />
          </mxGeometry>
        </mxCell>
      </root>
    </mxGraphModel>
  </diagram>
  <diagram id="mj5oB05riVym4pmAbyUJ" name="NFR">
    <mxGraphModel dx="3013" dy="531" grid="0" gridSize="10" guides="1" tooltips="1" connect="1" arrows="1" fold="1" page="0" pageScale="1" pageWidth="827" pageHeight="1169" math="0" shadow="0">
      <root>
        <mxCell id="0" />
        <mxCell id="1" parent="0" />
        <mxCell id="99slbLmTtCYMwGJlwXyB-1" value="" style="rounded=0;whiteSpace=wrap;html=1;" vertex="1" parent="1">
          <mxGeometry x="594.9958966064453" y="409.9955508422852" width="360" height="600" as="geometry" />
        </mxCell>
        <mxCell id="99slbLmTtCYMwGJlwXyB-2" value="" style="rounded=0;whiteSpace=wrap;html=1;" vertex="1" parent="1">
          <mxGeometry x="86.99589660644529" y="406.9955508422852" width="360" height="600" as="geometry" />
        </mxCell>
        <mxCell id="99slbLmTtCYMwGJlwXyB-3" value="Реєстрація" style="text;html=1;strokeColor=none;fillColor=none;align=center;verticalAlign=middle;whiteSpace=wrap;rounded=0;fontSize=36;" vertex="1" parent="1">
          <mxGeometry x="151.99589660644529" y="496.9955508422852" width="230" height="50" as="geometry" />
        </mxCell>
        <mxCell id="99slbLmTtCYMwGJlwXyB-4" value="&lt;span style=&quot;font-size: 20px;&quot;&gt;&amp;nbsp;user@mail.com&lt;/span&gt;" style="rounded=0;whiteSpace=wrap;html=1;align=left;" vertex="1" parent="1">
          <mxGeometry x="166.99589660644529" y="596.9955508422852" width="200" height="30" as="geometry" />
        </mxCell>
        <mxCell id="99slbLmTtCYMwGJlwXyB-5" value="Email" style="text;html=1;strokeColor=none;fillColor=none;align=center;verticalAlign=middle;whiteSpace=wrap;rounded=0;fontSize=20;" vertex="1" parent="1">
          <mxGeometry x="166.99589660644529" y="556.9955508422852" width="60" height="30" as="geometry" />
        </mxCell>
        <mxCell id="99slbLmTtCYMwGJlwXyB-6" value="&lt;span style=&quot;font-size: 20px;&quot;&gt;&amp;nbsp;user123&lt;/span&gt;" style="rounded=0;whiteSpace=wrap;html=1;align=left;" vertex="1" parent="1">
          <mxGeometry x="166.99589660644529" y="686.9955508422852" width="200" height="30" as="geometry" />
        </mxCell>
        <mxCell id="99slbLmTtCYMwGJlwXyB-7" value="Login" style="text;html=1;strokeColor=none;fillColor=none;align=center;verticalAlign=middle;whiteSpace=wrap;rounded=0;fontSize=20;" vertex="1" parent="1">
          <mxGeometry x="166.99589660644529" y="646.9955508422852" width="60" height="30" as="geometry" />
        </mxCell>
        <mxCell id="99slbLmTtCYMwGJlwXyB-8" value="&lt;font style=&quot;font-size: 20px;&quot;&gt;&amp;nbsp;****************&lt;/font&gt;" style="rounded=0;whiteSpace=wrap;html=1;align=left;" vertex="1" parent="1">
          <mxGeometry x="166.99589660644529" y="776.9955508422852" width="200" height="30" as="geometry" />
        </mxCell>
        <mxCell id="99slbLmTtCYMwGJlwXyB-9" value="Password" style="text;html=1;strokeColor=none;fillColor=none;align=center;verticalAlign=middle;whiteSpace=wrap;rounded=0;fontSize=20;" vertex="1" parent="1">
          <mxGeometry x="186.99589660644529" y="736.9955508422852" width="60" height="30" as="geometry" />
        </mxCell>
        <mxCell id="99slbLmTtCYMwGJlwXyB-10" value="&lt;font style=&quot;font-size: 20px;&quot;&gt;Зареєструватись&lt;/font&gt;" style="rounded=1;whiteSpace=wrap;html=1;arcSize=50;fillColor=#3399FF;" vertex="1" parent="1">
          <mxGeometry x="176.99589660644529" y="836.9955508422852" width="180" height="40" as="geometry" />
        </mxCell>
        <mxCell id="99slbLmTtCYMwGJlwXyB-11" value="&lt;font style=&quot;font-size: 20px;&quot;&gt;Вже є аккаунт&lt;/font&gt;" style="rounded=1;whiteSpace=wrap;html=1;arcSize=50;fillColor=#3399FF;" vertex="1" parent="1">
          <mxGeometry x="176.99589660644529" y="896.9955508422852" width="180" height="50" as="geometry" />
        </mxCell>
        <mxCell id="99slbLmTtCYMwGJlwXyB-12" value="Авторизація" style="text;html=1;strokeColor=none;fillColor=none;align=center;verticalAlign=middle;whiteSpace=wrap;rounded=0;fontSize=36;" vertex="1" parent="1">
          <mxGeometry x="659.9958966064453" y="499.9955508422852" width="230" height="50" as="geometry" />
        </mxCell>
        <mxCell id="99slbLmTtCYMwGJlwXyB-13" value="&lt;span style=&quot;font-size: 20px;&quot;&gt;&amp;nbsp;user1234&lt;/span&gt;" style="rounded=0;whiteSpace=wrap;html=1;align=left;" vertex="1" parent="1">
          <mxGeometry x="674.9958966064453" y="599.9955508422852" width="200" height="30" as="geometry" />
        </mxCell>
        <mxCell id="99slbLmTtCYMwGJlwXyB-14" value="Login" style="text;html=1;strokeColor=none;fillColor=none;align=center;verticalAlign=middle;whiteSpace=wrap;rounded=0;fontSize=20;" vertex="1" parent="1">
          <mxGeometry x="674.9958966064453" y="559.9955508422852" width="60" height="30" as="geometry" />
        </mxCell>
        <mxCell id="99slbLmTtCYMwGJlwXyB-15" value="&lt;font style=&quot;font-size: 20px;&quot;&gt;&amp;nbsp;****************&lt;/font&gt;" style="rounded=0;whiteSpace=wrap;html=1;align=left;" vertex="1" parent="1">
          <mxGeometry x="674.9958966064453" y="689.9955508422852" width="200" height="30" as="geometry" />
        </mxCell>
        <mxCell id="99slbLmTtCYMwGJlwXyB-16" value="Password" style="text;html=1;strokeColor=none;fillColor=none;align=center;verticalAlign=middle;whiteSpace=wrap;rounded=0;fontSize=20;" vertex="1" parent="1">
          <mxGeometry x="694.9958966064453" y="649.9955508422852" width="60" height="30" as="geometry" />
        </mxCell>
        <mxCell id="99slbLmTtCYMwGJlwXyB-17" value="&lt;font style=&quot;font-size: 20px;&quot;&gt;Авторизуватись&lt;/font&gt;" style="rounded=1;whiteSpace=wrap;html=1;arcSize=50;fillColor=#3399FF;" vertex="1" parent="1">
          <mxGeometry x="684.9958966064453" y="749.9955508422852" width="180" height="40" as="geometry" />
        </mxCell>
        <mxCell id="99slbLmTtCYMwGJlwXyB-18" value="&lt;font style=&quot;font-size: 20px;&quot;&gt;Створити аккаут&lt;/font&gt;" style="rounded=1;whiteSpace=wrap;html=1;arcSize=50;fillColor=#3399FF;" vertex="1" parent="1">
          <mxGeometry x="684.9958966064453" y="809.9955508422852" width="180" height="50" as="geometry" />
        </mxCell>
        <mxCell id="99slbLmTtCYMwGJlwXyB-19" value="" style="endArrow=classic;html=1;rounded=0;exitX=0;exitY=0.5;exitDx=0;exitDy=0;entryX=0.997;entryY=0.708;entryDx=0;entryDy=0;entryPerimeter=0;" edge="1" parent="1" source="99slbLmTtCYMwGJlwXyB-18" target="99slbLmTtCYMwGJlwXyB-2">
          <mxGeometry width="50" height="50" relative="1" as="geometry">
            <mxPoint x="306.9958966064453" y="398.9955508422852" as="sourcePoint" />
            <mxPoint x="356.9958966064453" y="348.9955508422852" as="targetPoint" />
          </mxGeometry>
        </mxCell>
        <mxCell id="99slbLmTtCYMwGJlwXyB-20" value="" style="endArrow=classic;html=1;rounded=0;exitX=1;exitY=0.5;exitDx=0;exitDy=0;entryX=0.001;entryY=0.857;entryDx=0;entryDy=0;entryPerimeter=0;" edge="1" parent="1" source="99slbLmTtCYMwGJlwXyB-11" target="99slbLmTtCYMwGJlwXyB-1">
          <mxGeometry width="50" height="50" relative="1" as="geometry">
            <mxPoint x="796.9958966064453" y="841.9955508422852" as="sourcePoint" />
            <mxPoint x="456.9958966064453" y="866.9955508422852" as="targetPoint" />
          </mxGeometry>
        </mxCell>
        <mxCell id="99slbLmTtCYMwGJlwXyB-21" value="" style="rounded=0;whiteSpace=wrap;html=1;" vertex="1" parent="1">
          <mxGeometry x="682.4658966064453" y="1138.2755508422852" width="360" height="600" as="geometry" />
        </mxCell>
        <mxCell id="99slbLmTtCYMwGJlwXyB-25" value="&lt;font style=&quot;font-size: 16px;&quot;&gt;Освітленість&lt;/font&gt;" style="rounded=0;whiteSpace=wrap;html=1;fillColor=none;" vertex="1" parent="1">
          <mxGeometry x="751.24" y="1353" width="222.47" height="40" as="geometry" />
        </mxCell>
        <mxCell id="99slbLmTtCYMwGJlwXyB-26" value="&lt;font style=&quot;font-size: 16px;&quot;&gt;Психологічно-емоц. стан&lt;/font&gt;" style="rounded=0;whiteSpace=wrap;html=1;fillColor=#3399FF;strokeColor=#001DBC;fontColor=#ffffff;" vertex="1" parent="1">
          <mxGeometry x="749.95" y="1407" width="223.76" height="40" as="geometry" />
        </mxCell>
        <mxCell id="99slbLmTtCYMwGJlwXyB-28" value="" style="rounded=0;whiteSpace=wrap;html=1;" vertex="1" parent="1">
          <mxGeometry x="1202.9958966064453" y="1138.2755508422852" width="360" height="600" as="geometry" />
        </mxCell>
        <mxCell id="99slbLmTtCYMwGJlwXyB-30" value="&lt;font style=&quot;font-size: 24px;&quot;&gt;Психологічно-емоціональна стабільність&lt;/font&gt;" style="text;html=1;strokeColor=none;fillColor=none;align=center;verticalAlign=middle;whiteSpace=wrap;rounded=0;fontSize=36;" vertex="1" parent="1">
          <mxGeometry x="1217.11" y="1176.28" width="334.97" height="160" as="geometry" />
        </mxCell>
        <mxCell id="99slbLmTtCYMwGJlwXyB-37" value="" style="ellipse;whiteSpace=wrap;html=1;" vertex="1" parent="1">
          <mxGeometry x="356.9958966064453" y="418.9955508422852" width="20" height="20" as="geometry" />
        </mxCell>
        <mxCell id="99slbLmTtCYMwGJlwXyB-38" value="" style="ellipse;whiteSpace=wrap;html=1;" vertex="1" parent="1">
          <mxGeometry x="386.9958966064453" y="418.9955508422852" width="20" height="20" as="geometry" />
        </mxCell>
        <mxCell id="99slbLmTtCYMwGJlwXyB-39" value="" style="ellipse;whiteSpace=wrap;html=1;strokeColor=#3399FF;" vertex="1" parent="1">
          <mxGeometry x="416.9958966064453" y="418.9955508422852" width="20" height="20" as="geometry" />
        </mxCell>
        <mxCell id="99slbLmTtCYMwGJlwXyB-40" value="" style="ellipse;whiteSpace=wrap;html=1;" vertex="1" parent="1">
          <mxGeometry x="864.9958966064453" y="421.9955508422852" width="20" height="20" as="geometry" />
        </mxCell>
        <mxCell id="99slbLmTtCYMwGJlwXyB-41" value="" style="ellipse;whiteSpace=wrap;html=1;" vertex="1" parent="1">
          <mxGeometry x="894.9958966064453" y="421.9955508422852" width="20" height="20" as="geometry" />
        </mxCell>
        <mxCell id="99slbLmTtCYMwGJlwXyB-42" value="" style="ellipse;whiteSpace=wrap;html=1;strokeColor=#3399FF;" vertex="1" parent="1">
          <mxGeometry x="924.9958966064453" y="421.9955508422852" width="20" height="20" as="geometry" />
        </mxCell>
        <mxCell id="99slbLmTtCYMwGJlwXyB-43" value="" style="ellipse;whiteSpace=wrap;html=1;" vertex="1" parent="1">
          <mxGeometry x="1466.4658966064453" y="1144.5555508422851" width="20" height="20" as="geometry" />
        </mxCell>
        <mxCell id="99slbLmTtCYMwGJlwXyB-44" value="" style="ellipse;whiteSpace=wrap;html=1;" vertex="1" parent="1">
          <mxGeometry x="1496.4658966064453" y="1144.5555508422851" width="20" height="20" as="geometry" />
        </mxCell>
        <mxCell id="99slbLmTtCYMwGJlwXyB-45" value="" style="ellipse;whiteSpace=wrap;html=1;strokeColor=#3399FF;" vertex="1" parent="1">
          <mxGeometry x="1526.4658966064453" y="1144.5555508422851" width="20" height="20" as="geometry" />
        </mxCell>
        <mxCell id="99slbLmTtCYMwGJlwXyB-46" value="" style="ellipse;whiteSpace=wrap;html=1;" vertex="1" parent="1">
          <mxGeometry x="952.4658966064453" y="1148.2755508422852" width="20" height="20" as="geometry" />
        </mxCell>
        <mxCell id="99slbLmTtCYMwGJlwXyB-47" value="" style="ellipse;whiteSpace=wrap;html=1;" vertex="1" parent="1">
          <mxGeometry x="982.4658966064453" y="1148.2755508422852" width="20" height="20" as="geometry" />
        </mxCell>
        <mxCell id="99slbLmTtCYMwGJlwXyB-48" value="" style="ellipse;whiteSpace=wrap;html=1;strokeColor=#3399FF;" vertex="1" parent="1">
          <mxGeometry x="1012.4658966064453" y="1148.2755508422852" width="20" height="20" as="geometry" />
        </mxCell>
        <mxCell id="99slbLmTtCYMwGJlwXyB-49" value="" style="rounded=0;whiteSpace=wrap;html=1;" vertex="1" parent="1">
          <mxGeometry x="99.99589660644531" y="1141.9955508422852" width="360" height="600" as="geometry" />
        </mxCell>
        <mxCell id="99slbLmTtCYMwGJlwXyB-50" value="" style="ellipse;whiteSpace=wrap;html=1;" vertex="1" parent="1">
          <mxGeometry x="362.4658966064453" y="1148.2755508422852" width="20" height="20" as="geometry" />
        </mxCell>
        <mxCell id="99slbLmTtCYMwGJlwXyB-51" value="" style="ellipse;whiteSpace=wrap;html=1;" vertex="1" parent="1">
          <mxGeometry x="392.4658966064453" y="1148.2755508422852" width="20" height="20" as="geometry" />
        </mxCell>
        <mxCell id="99slbLmTtCYMwGJlwXyB-52" value="" style="ellipse;whiteSpace=wrap;html=1;strokeColor=#3399FF;" vertex="1" parent="1">
          <mxGeometry x="422.4658966064453" y="1148.2755508422852" width="20" height="20" as="geometry" />
        </mxCell>
        <mxCell id="99slbLmTtCYMwGJlwXyB-54" value="" style="endArrow=classic;html=1;rounded=0;exitX=0;exitY=0.5;exitDx=0;exitDy=0;entryX=1;entryY=0.599;entryDx=0;entryDy=0;entryPerimeter=0;" edge="1" parent="1" source="99slbLmTtCYMwGJlwXyB-79" target="99slbLmTtCYMwGJlwXyB-49">
          <mxGeometry width="50" height="50" relative="1" as="geometry">
            <mxPoint x="614" y="1280" as="sourcePoint" />
            <mxPoint x="463" y="1516" as="targetPoint" />
          </mxGeometry>
        </mxCell>
        <mxCell id="99slbLmTtCYMwGJlwXyB-56" value="&lt;b&gt;Профіль&lt;/b&gt;" style="text;html=1;strokeColor=none;fillColor=none;align=center;verticalAlign=middle;whiteSpace=wrap;rounded=0;fontSize=36;" vertex="1" parent="1">
          <mxGeometry x="151.9958966064453" y="1212.9955508422852" width="265" height="60" as="geometry" />
        </mxCell>
        <mxCell id="99slbLmTtCYMwGJlwXyB-57" value="Користувач" style="text;html=1;strokeColor=none;fillColor=none;align=center;verticalAlign=middle;whiteSpace=wrap;rounded=0;fontSize=20;" vertex="1" parent="1">
          <mxGeometry x="236.9958966064453" y="1368.9955508422852" width="210" height="30" as="geometry" />
        </mxCell>
        <mxCell id="99slbLmTtCYMwGJlwXyB-58" style="edgeStyle=orthogonalEdgeStyle;rounded=0;orthogonalLoop=1;jettySize=auto;html=1;exitX=0;exitY=0.5;exitDx=0;exitDy=0;" edge="1" parent="1" source="99slbLmTtCYMwGJlwXyB-59" target="99slbLmTtCYMwGJlwXyB-60">
          <mxGeometry relative="1" as="geometry">
            <mxPoint x="272" y="1673" as="sourcePoint" />
          </mxGeometry>
        </mxCell>
        <mxCell id="99slbLmTtCYMwGJlwXyB-59" value="&lt;span style=&quot;font-size: 20px;&quot;&gt;&amp;nbsp; &amp;nbsp; &amp;nbsp; Технічна підтримка&lt;/span&gt;" style="rounded=0;whiteSpace=wrap;html=1;align=left;" vertex="1" parent="1">
          <mxGeometry x="100" y="1648" width="360" height="30" as="geometry" />
        </mxCell>
        <mxCell id="99slbLmTtCYMwGJlwXyB-60" value="" style="rounded=0;whiteSpace=wrap;html=1;" vertex="1" parent="1">
          <mxGeometry x="-437.0041033935547" y="1138.2755508422852" width="360" height="600" as="geometry" />
        </mxCell>
        <mxCell id="99slbLmTtCYMwGJlwXyB-61" value="" style="ellipse;whiteSpace=wrap;html=1;" vertex="1" parent="1">
          <mxGeometry x="-167.00410339355471" y="1148.2755508422852" width="20" height="20" as="geometry" />
        </mxCell>
        <mxCell id="99slbLmTtCYMwGJlwXyB-62" value="" style="ellipse;whiteSpace=wrap;html=1;" vertex="1" parent="1">
          <mxGeometry x="-137.00410339355471" y="1148.2755508422852" width="20" height="20" as="geometry" />
        </mxCell>
        <mxCell id="99slbLmTtCYMwGJlwXyB-63" value="" style="ellipse;whiteSpace=wrap;html=1;strokeColor=#3399FF;" vertex="1" parent="1">
          <mxGeometry x="-107.00410339355471" y="1148.2755508422852" width="20" height="20" as="geometry" />
        </mxCell>
        <mxCell id="99slbLmTtCYMwGJlwXyB-64" value="&lt;font style=&quot;font-size: 35px;&quot;&gt;Технічна підтримка&lt;/font&gt;" style="text;html=1;strokeColor=none;fillColor=none;align=center;verticalAlign=middle;whiteSpace=wrap;rounded=0;fontSize=36;" vertex="1" parent="1">
          <mxGeometry x="-389.5041033935547" y="1227.9955508422852" width="265" height="60" as="geometry" />
        </mxCell>
        <mxCell id="99slbLmTtCYMwGJlwXyB-65" value="" style="rounded=0;whiteSpace=wrap;html=1;align=left;" vertex="1" parent="1">
          <mxGeometry x="-389.5" y="1388" width="272.5" height="140" as="geometry" />
        </mxCell>
        <mxCell id="99slbLmTtCYMwGJlwXyB-66" value="&lt;div style=&quot;&quot;&gt;&lt;span style=&quot;font-size: 22px; background-color: initial;&quot;&gt;Надати питання&lt;/span&gt;&lt;/div&gt;" style="text;html=1;strokeColor=none;fillColor=none;align=left;verticalAlign=middle;whiteSpace=wrap;rounded=0;" vertex="1" parent="1">
          <mxGeometry x="-342.02000000000004" y="1351" width="177.53" height="30" as="geometry" />
        </mxCell>
        <mxCell id="99slbLmTtCYMwGJlwXyB-67" value="&lt;div style=&quot;&quot;&gt;&lt;font style=&quot;font-size: 36px;&quot;&gt;...&lt;/font&gt;&lt;/div&gt;" style="text;html=1;strokeColor=none;fillColor=none;align=left;verticalAlign=middle;whiteSpace=wrap;rounded=0;" vertex="1" parent="1">
          <mxGeometry x="-384.47" y="1400" width="45" height="31" as="geometry" />
        </mxCell>
        <mxCell id="99slbLmTtCYMwGJlwXyB-68" value="&lt;font style=&quot;font-size: 20px;&quot;&gt;Надіслати&lt;/font&gt;" style="rounded=1;whiteSpace=wrap;html=1;arcSize=50;fillColor=#3399FF;" vertex="1" parent="1">
          <mxGeometry x="-347.0041033935547" y="1561.995550842285" width="180" height="40" as="geometry" />
        </mxCell>
        <mxCell id="99slbLmTtCYMwGJlwXyB-69" value="" style="verticalLabelPosition=bottom;shadow=0;dashed=0;align=center;html=1;verticalAlign=top;strokeWidth=1;shape=mxgraph.mockup.containers.userMale;strokeColor=#666666;strokeColor2=#008cff;" vertex="1" parent="1">
          <mxGeometry x="126.99589660644531" y="1336.9955508422852" width="100" height="100" as="geometry" />
        </mxCell>
        <mxCell id="99slbLmTtCYMwGJlwXyB-71" value="" style="endArrow=classic;html=1;rounded=0;exitX=1;exitY=0.5;exitDx=0;exitDy=0;entryX=0;entryY=0.5;entryDx=0;entryDy=0;" edge="1" parent="1" source="99slbLmTtCYMwGJlwXyB-26" target="99slbLmTtCYMwGJlwXyB-28">
          <mxGeometry width="50" height="50" relative="1" as="geometry">
            <mxPoint x="632.4658966064453" y="1318.2755508422852" as="sourcePoint" />
            <mxPoint x="682.4658966064453" y="1268.2755508422852" as="targetPoint" />
          </mxGeometry>
        </mxCell>
        <mxCell id="99slbLmTtCYMwGJlwXyB-72" value="" style="endArrow=none;html=1;rounded=0;exitX=0;exitY=0.25;exitDx=0;exitDy=0;entryX=1;entryY=0.25;entryDx=0;entryDy=0;" edge="1" parent="1" source="99slbLmTtCYMwGJlwXyB-49" target="99slbLmTtCYMwGJlwXyB-49">
          <mxGeometry width="50" height="50" relative="1" as="geometry">
            <mxPoint x="726" y="1486" as="sourcePoint" />
            <mxPoint x="776" y="1436" as="targetPoint" />
          </mxGeometry>
        </mxCell>
        <mxCell id="99slbLmTtCYMwGJlwXyB-73" value="" style="endArrow=none;html=1;rounded=0;" edge="1" parent="1">
          <mxGeometry width="50" height="50" relative="1" as="geometry">
            <mxPoint x="99" y="1480" as="sourcePoint" />
            <mxPoint x="458" y="1480" as="targetPoint" />
          </mxGeometry>
        </mxCell>
        <mxCell id="99slbLmTtCYMwGJlwXyB-77" value="" style="endArrow=classic;html=1;rounded=0;exitX=0;exitY=0.5;exitDx=0;exitDy=0;entryX=0.5;entryY=0;entryDx=0;entryDy=0;" edge="1" parent="1" source="99slbLmTtCYMwGJlwXyB-10" target="99slbLmTtCYMwGJlwXyB-49">
          <mxGeometry width="50" height="50" relative="1" as="geometry">
            <mxPoint x="390" y="1056" as="sourcePoint" />
            <mxPoint x="440" y="1006" as="targetPoint" />
            <Array as="points">
              <mxPoint x="-9" y="857" />
              <mxPoint x="-9" y="1049" />
              <mxPoint x="280" y="1049" />
            </Array>
          </mxGeometry>
        </mxCell>
        <mxCell id="99slbLmTtCYMwGJlwXyB-78" value="&lt;b&gt;Меню&lt;/b&gt;" style="text;html=1;strokeColor=none;fillColor=none;align=center;verticalAlign=middle;whiteSpace=wrap;rounded=0;fontSize=36;" vertex="1" parent="1">
          <mxGeometry x="729.97" y="1277" width="265" height="60" as="geometry" />
        </mxCell>
        <mxCell id="99slbLmTtCYMwGJlwXyB-79" value="&lt;font style=&quot;font-size: 16px;&quot;&gt;Профіль&lt;/font&gt;" style="rounded=0;whiteSpace=wrap;html=1;fillColor=none;" vertex="1" parent="1">
          <mxGeometry x="751.24" y="1460" width="223.76" height="40" as="geometry" />
        </mxCell>
        <mxCell id="99slbLmTtCYMwGJlwXyB-80" value="&lt;div style=&quot;&quot;&gt;&lt;span style=&quot;font-size: 14px; background-color: initial;&quot;&gt;Емоційна стійкість&lt;/span&gt;&lt;/div&gt;&lt;font style=&quot;font-size: 14px;&quot;&gt;&lt;div style=&quot;&quot;&gt;&lt;span style=&quot;background-color: initial;&quot;&gt;Здатність адаптуватися&lt;/span&gt;&lt;/div&gt;&lt;div style=&quot;&quot;&gt;&lt;span style=&quot;background-color: initial;&quot;&gt;Саморегуляція&lt;/span&gt;&lt;/div&gt;&lt;div style=&quot;&quot;&gt;&lt;span style=&quot;background-color: initial;&quot;&gt;Психологічна витривалість&lt;/span&gt;&lt;/div&gt;&lt;/font&gt;" style="rounded=0;whiteSpace=wrap;html=1;align=center;" vertex="1" parent="1">
          <mxGeometry x="1265.1" y="1389.28" width="239" height="137" as="geometry" />
        </mxCell>
        <mxCell id="99slbLmTtCYMwGJlwXyB-81" value="&lt;font style=&quot;font-size: 24px;&quot;&gt;&lt;b&gt;Мої дані&lt;/b&gt;&lt;/font&gt;" style="text;html=1;strokeColor=none;fillColor=none;align=center;verticalAlign=middle;whiteSpace=wrap;rounded=0;" vertex="1" parent="1">
          <mxGeometry x="1329" y="1345.28" width="108" height="30" as="geometry" />
        </mxCell>
        <mxCell id="99slbLmTtCYMwGJlwXyB-82" value="&lt;font style=&quot;font-size: 16px;&quot;&gt;Профіль&lt;/font&gt;" style="rounded=0;whiteSpace=wrap;html=1;fillColor=#3399FF;" vertex="1" parent="1">
          <mxGeometry x="1272.71" y="1665.28" width="223.76" height="40" as="geometry" />
        </mxCell>
        <mxCell id="99slbLmTtCYMwGJlwXyB-83" value="&lt;font style=&quot;font-size: 16px;&quot;&gt;Меню&lt;/font&gt;" style="rounded=0;whiteSpace=wrap;html=1;fillColor=#3399FF;" vertex="1" parent="1">
          <mxGeometry x="1272.71" y="1608.28" width="223.76" height="40" as="geometry" />
        </mxCell>
        <mxCell id="99slbLmTtCYMwGJlwXyB-84" value="" style="endArrow=classic;html=1;rounded=0;exitX=0;exitY=0.5;exitDx=0;exitDy=0;entryX=1.001;entryY=0.825;entryDx=0;entryDy=0;entryPerimeter=0;" edge="1" parent="1" source="99slbLmTtCYMwGJlwXyB-83" target="99slbLmTtCYMwGJlwXyB-21">
          <mxGeometry width="50" height="50" relative="1" as="geometry">
            <mxPoint x="1232" y="1530" as="sourcePoint" />
            <mxPoint x="1282" y="1480" as="targetPoint" />
          </mxGeometry>
        </mxCell>
        <mxCell id="99slbLmTtCYMwGJlwXyB-85" value="" style="endArrow=classic;html=1;rounded=0;exitX=0;exitY=0.5;exitDx=0;exitDy=0;entryX=1.007;entryY=0.774;entryDx=0;entryDy=0;entryPerimeter=0;" edge="1" parent="1" source="99slbLmTtCYMwGJlwXyB-82" target="99slbLmTtCYMwGJlwXyB-49">
          <mxGeometry width="50" height="50" relative="1" as="geometry">
            <mxPoint x="920" y="1681" as="sourcePoint" />
            <mxPoint x="970" y="1631" as="targetPoint" />
            <Array as="points">
              <mxPoint x="1175" y="1689" />
              <mxPoint x="1175" y="1808" />
              <mxPoint x="556" y="1808" />
              <mxPoint x="556" y="1606" />
            </Array>
          </mxGeometry>
        </mxCell>
        <mxCell id="99slbLmTtCYMwGJlwXyB-86" value="" style="rounded=0;whiteSpace=wrap;html=1;" vertex="1" parent="1">
          <mxGeometry x="1745" y="1138.28" width="360" height="600" as="geometry" />
        </mxCell>
        <mxCell id="99slbLmTtCYMwGJlwXyB-87" value="" style="ellipse;whiteSpace=wrap;html=1;" vertex="1" parent="1">
          <mxGeometry x="2010" y="1148.28" width="20" height="20" as="geometry" />
        </mxCell>
        <mxCell id="99slbLmTtCYMwGJlwXyB-88" value="" style="ellipse;whiteSpace=wrap;html=1;" vertex="1" parent="1">
          <mxGeometry x="2040" y="1148.28" width="20" height="20" as="geometry" />
        </mxCell>
        <mxCell id="99slbLmTtCYMwGJlwXyB-89" value="" style="ellipse;whiteSpace=wrap;html=1;strokeColor=#3399FF;" vertex="1" parent="1">
          <mxGeometry x="2070" y="1148.28" width="20" height="20" as="geometry" />
        </mxCell>
        <mxCell id="99slbLmTtCYMwGJlwXyB-90" value="&lt;font style=&quot;font-size: 24px;&quot;&gt;Освітленість навколишнього середовища&lt;/font&gt;" style="text;html=1;strokeColor=none;fillColor=none;align=center;verticalAlign=middle;whiteSpace=wrap;rounded=0;fontSize=36;" vertex="1" parent="1">
          <mxGeometry x="1760" y="1185.28" width="334.97" height="160" as="geometry" />
        </mxCell>
        <mxCell id="99slbLmTtCYMwGJlwXyB-92" value="&lt;font style=&quot;font-size: 18px;&quot;&gt;&lt;b style=&quot;&quot;&gt;Оберіть, яка освітленість Вам потрібна&lt;/b&gt;&lt;/font&gt;" style="text;html=1;strokeColor=none;fillColor=none;align=center;verticalAlign=middle;whiteSpace=wrap;rounded=0;" vertex="1" parent="1">
          <mxGeometry x="1760" y="1358" width="327" height="30" as="geometry" />
        </mxCell>
        <mxCell id="99slbLmTtCYMwGJlwXyB-94" value="" style="strokeWidth=1;shadow=0;dashed=0;align=center;html=1;shape=mxgraph.mockup.forms.rrect;rSize=0;strokeColor=#999999;fillColor=#ffffff;" vertex="1" parent="1">
          <mxGeometry x="1794" y="1431" width="264" height="123" as="geometry" />
        </mxCell>
        <mxCell id="99slbLmTtCYMwGJlwXyB-95" value="Освітленість" style="strokeWidth=1;shadow=0;dashed=0;align=center;html=1;shape=mxgraph.mockup.forms.rrect;rSize=0;strokeColor=#999999;fontColor=#008cff;fontSize=17;fillColor=#ffffff;resizeWidth=1;whiteSpace=wrap;" vertex="1" parent="99slbLmTtCYMwGJlwXyB-94">
          <mxGeometry width="264" height="30" relative="1" as="geometry">
            <mxPoint y="-1" as="offset" />
          </mxGeometry>
        </mxCell>
        <mxCell id="99slbLmTtCYMwGJlwXyB-96" value="житлове приміщення" style="strokeWidth=1;shadow=0;dashed=0;align=center;html=1;shape=mxgraph.mockup.forms.anchor;fontSize=17;fontColor=#666666;align=left;spacingLeft=5;resizeWidth=1;whiteSpace=wrap;" vertex="1" parent="99slbLmTtCYMwGJlwXyB-94">
          <mxGeometry width="264" height="20" relative="1" as="geometry">
            <mxPoint y="30" as="offset" />
          </mxGeometry>
        </mxCell>
        <mxCell id="99slbLmTtCYMwGJlwXyB-97" value="громадське місце" style="strokeWidth=1;shadow=0;dashed=0;align=center;html=1;shape=mxgraph.mockup.forms.anchor;fontSize=17;fontColor=#666666;align=left;spacingLeft=5;resizeWidth=1;whiteSpace=wrap;" vertex="1" parent="99slbLmTtCYMwGJlwXyB-94">
          <mxGeometry width="264" height="20" relative="1" as="geometry">
            <mxPoint y="50" as="offset" />
          </mxGeometry>
        </mxCell>
        <mxCell id="99slbLmTtCYMwGJlwXyB-98" value="на робочому місці" style="strokeWidth=1;shadow=0;dashed=0;align=center;html=1;shape=mxgraph.mockup.forms.rrect;rSize=0;fontSize=17;fontColor=#666666;align=left;spacingLeft=5;fillColor=#ddeeff;strokeColor=none;resizeWidth=1;whiteSpace=wrap;" vertex="1" parent="99slbLmTtCYMwGJlwXyB-94">
          <mxGeometry width="264" height="20" relative="1" as="geometry">
            <mxPoint y="70" as="offset" />
          </mxGeometry>
        </mxCell>
        <mxCell id="99slbLmTtCYMwGJlwXyB-99" value="спеціальні випадки" style="strokeWidth=1;shadow=0;dashed=0;align=center;html=1;shape=mxgraph.mockup.forms.anchor;fontSize=17;fontColor=#666666;align=left;spacingLeft=5;resizeWidth=1;whiteSpace=wrap;" vertex="1" parent="99slbLmTtCYMwGJlwXyB-94">
          <mxGeometry width="264" height="20" relative="1" as="geometry">
            <mxPoint y="90" as="offset" />
          </mxGeometry>
        </mxCell>
        <mxCell id="99slbLmTtCYMwGJlwXyB-100" value="&lt;font style=&quot;font-size: 16px;&quot;&gt;Профіль&lt;/font&gt;" style="rounded=0;whiteSpace=wrap;html=1;fillColor=#3399FF;" vertex="1" parent="1">
          <mxGeometry x="1822" y="1659" width="223.76" height="40" as="geometry" />
        </mxCell>
        <mxCell id="99slbLmTtCYMwGJlwXyB-101" value="&lt;font style=&quot;font-size: 16px;&quot;&gt;Меню&lt;/font&gt;" style="rounded=0;whiteSpace=wrap;html=1;fillColor=#3399FF;" vertex="1" parent="1">
          <mxGeometry x="1822" y="1602" width="223.76" height="40" as="geometry" />
        </mxCell>
        <mxCell id="99slbLmTtCYMwGJlwXyB-102" value="" style="endArrow=classic;html=1;rounded=0;exitX=0;exitY=0.5;exitDx=0;exitDy=0;" edge="1" parent="1" source="99slbLmTtCYMwGJlwXyB-101">
          <mxGeometry width="50" height="50" relative="1" as="geometry">
            <mxPoint x="1330" y="1583" as="sourcePoint" />
            <mxPoint x="868" y="1134" as="targetPoint" />
            <Array as="points">
              <mxPoint x="1664" y="1618" />
              <mxPoint x="1657" y="1076" />
              <mxPoint x="868" y="1071" />
            </Array>
          </mxGeometry>
        </mxCell>
        <mxCell id="99slbLmTtCYMwGJlwXyB-103" value="" style="endArrow=classic;html=1;rounded=0;entryX=0.5;entryY=1;entryDx=0;entryDy=0;" edge="1" parent="1" target="99slbLmTtCYMwGJlwXyB-49">
          <mxGeometry width="50" height="50" relative="1" as="geometry">
            <mxPoint x="1819" y="1681" as="sourcePoint" />
            <mxPoint x="1655" y="1833" as="targetPoint" />
            <Array as="points">
              <mxPoint x="1665" y="1681" />
              <mxPoint x="1665" y="1866" />
              <mxPoint x="280" y="1861" />
            </Array>
          </mxGeometry>
        </mxCell>
      </root>
    </mxGraphModel>
  </diagram>
  <diagram id="RotuZztYOzeL9vrY19Kg" name="NFR2">
    <mxGraphModel dx="364" dy="874" grid="1" gridSize="10" guides="1" tooltips="1" connect="1" arrows="1" fold="1" page="1" pageScale="1" pageWidth="827" pageHeight="1169" math="0" shadow="0">
      <root>
        <mxCell id="0" />
        <mxCell id="1" parent="0" />
        <mxCell id="VIYR3gMY2XiDIM0IGfiI-1" value="" style="rounded=0;whiteSpace=wrap;html=1;" vertex="1" parent="1">
          <mxGeometry x="110" y="140" width="360" height="600" as="geometry" />
        </mxCell>
        <mxCell id="VIYR3gMY2XiDIM0IGfiI-2" value="&lt;font style=&quot;font-size: 16px;&quot;&gt;Освітленість&lt;/font&gt;" style="rounded=0;whiteSpace=wrap;html=1;fillColor=#3399FF;" vertex="1" parent="1">
          <mxGeometry x="178.7741033935547" y="354.72444915771484" width="222.47" height="40" as="geometry" />
        </mxCell>
        <mxCell id="VIYR3gMY2XiDIM0IGfiI-3" value="&lt;font color=&quot;#000000&quot; style=&quot;font-size: 16px;&quot;&gt;Психологічно-емоц. стан&lt;/font&gt;" style="rounded=0;whiteSpace=wrap;html=1;fillColor=none;strokeColor=#001DBC;fontColor=#ffffff;" vertex="1" parent="1">
          <mxGeometry x="177.48410339355473" y="408.72444915771484" width="223.76" height="40" as="geometry" />
        </mxCell>
        <mxCell id="VIYR3gMY2XiDIM0IGfiI-9" value="" style="ellipse;whiteSpace=wrap;html=1;" vertex="1" parent="1">
          <mxGeometry x="380" y="150" width="20" height="20" as="geometry" />
        </mxCell>
        <mxCell id="VIYR3gMY2XiDIM0IGfiI-10" value="" style="ellipse;whiteSpace=wrap;html=1;" vertex="1" parent="1">
          <mxGeometry x="410" y="150" width="20" height="20" as="geometry" />
        </mxCell>
        <mxCell id="VIYR3gMY2XiDIM0IGfiI-11" value="" style="ellipse;whiteSpace=wrap;html=1;strokeColor=#3399FF;" vertex="1" parent="1">
          <mxGeometry x="440" y="150" width="20" height="20" as="geometry" />
        </mxCell>
        <mxCell id="VIYR3gMY2XiDIM0IGfiI-12" value="" style="endArrow=classic;html=1;rounded=0;exitX=1;exitY=0.5;exitDx=0;exitDy=0;entryX=0.004;entryY=0.475;entryDx=0;entryDy=0;entryPerimeter=0;" edge="1" parent="1" source="VIYR3gMY2XiDIM0IGfiI-3" target="VIYR3gMY2XiDIM0IGfiI-20">
          <mxGeometry width="50" height="50" relative="1" as="geometry">
            <mxPoint x="60" y="320" as="sourcePoint" />
            <mxPoint x="630.5299999999997" y="440" as="targetPoint" />
          </mxGeometry>
        </mxCell>
        <mxCell id="VIYR3gMY2XiDIM0IGfiI-13" value="&lt;b&gt;Меню&lt;/b&gt;" style="text;html=1;strokeColor=none;fillColor=none;align=center;verticalAlign=middle;whiteSpace=wrap;rounded=0;fontSize=36;" vertex="1" parent="1">
          <mxGeometry x="157.50410339355471" y="278.72444915771484" width="265" height="60" as="geometry" />
        </mxCell>
        <mxCell id="VIYR3gMY2XiDIM0IGfiI-14" value="&lt;font style=&quot;font-size: 16px;&quot;&gt;Профіль&lt;/font&gt;" style="rounded=0;whiteSpace=wrap;html=1;fillColor=none;" vertex="1" parent="1">
          <mxGeometry x="178.7741033935547" y="461.72444915771484" width="223.76" height="40" as="geometry" />
        </mxCell>
        <mxCell id="VIYR3gMY2XiDIM0IGfiI-19" value="" style="endArrow=classic;html=1;rounded=0;exitX=0;exitY=0.5;exitDx=0;exitDy=0;entryX=1.001;entryY=0.825;entryDx=0;entryDy=0;entryPerimeter=0;" edge="1" parent="1" source="VIYR3gMY2XiDIM0IGfiI-33" target="VIYR3gMY2XiDIM0IGfiI-1">
          <mxGeometry width="50" height="50" relative="1" as="geometry">
            <mxPoint x="700.2441033935547" y="630.0044491577148" as="sourcePoint" />
            <mxPoint x="709.5341033935547" y="481.72444915771484" as="targetPoint" />
          </mxGeometry>
        </mxCell>
        <mxCell id="VIYR3gMY2XiDIM0IGfiI-20" value="" style="rounded=0;whiteSpace=wrap;html=1;" vertex="1" parent="1">
          <mxGeometry x="690.0041033935547" y="140.00444915771482" width="360" height="600" as="geometry" />
        </mxCell>
        <mxCell id="VIYR3gMY2XiDIM0IGfiI-21" value="" style="ellipse;whiteSpace=wrap;html=1;" vertex="1" parent="1">
          <mxGeometry x="955.0041033935547" y="150.00444915771482" width="20" height="20" as="geometry" />
        </mxCell>
        <mxCell id="VIYR3gMY2XiDIM0IGfiI-22" value="" style="ellipse;whiteSpace=wrap;html=1;" vertex="1" parent="1">
          <mxGeometry x="985.0041033935547" y="150.00444915771482" width="20" height="20" as="geometry" />
        </mxCell>
        <mxCell id="VIYR3gMY2XiDIM0IGfiI-23" value="" style="ellipse;whiteSpace=wrap;html=1;strokeColor=#3399FF;" vertex="1" parent="1">
          <mxGeometry x="1015.0041033935547" y="150.00444915771482" width="20" height="20" as="geometry" />
        </mxCell>
        <mxCell id="VIYR3gMY2XiDIM0IGfiI-24" value="&lt;font style=&quot;font-size: 24px;&quot;&gt;Освітленість навколишнього середовища&lt;/font&gt;" style="text;html=1;strokeColor=none;fillColor=none;align=center;verticalAlign=middle;whiteSpace=wrap;rounded=0;fontSize=36;" vertex="1" parent="1">
          <mxGeometry x="705.0041033935547" y="187.00444915771482" width="334.97" height="160" as="geometry" />
        </mxCell>
        <mxCell id="VIYR3gMY2XiDIM0IGfiI-25" value="&lt;font style=&quot;font-size: 18px;&quot;&gt;&lt;b style=&quot;&quot;&gt;Оберіть, яка освітленість Вам потрібна&lt;/b&gt;&lt;/font&gt;" style="text;html=1;strokeColor=none;fillColor=none;align=center;verticalAlign=middle;whiteSpace=wrap;rounded=0;" vertex="1" parent="1">
          <mxGeometry x="705.0041033935547" y="359.72444915771484" width="327" height="30" as="geometry" />
        </mxCell>
        <mxCell id="VIYR3gMY2XiDIM0IGfiI-26" value="" style="strokeWidth=1;shadow=0;dashed=0;align=center;html=1;shape=mxgraph.mockup.forms.rrect;rSize=0;strokeColor=#999999;fillColor=#ffffff;" vertex="1" parent="1">
          <mxGeometry x="739.0041033935547" y="432.72444915771484" width="264" height="123" as="geometry" />
        </mxCell>
        <mxCell id="VIYR3gMY2XiDIM0IGfiI-27" value="Освітленість" style="strokeWidth=1;shadow=0;dashed=0;align=center;html=1;shape=mxgraph.mockup.forms.rrect;rSize=0;strokeColor=#999999;fontColor=#008cff;fontSize=17;fillColor=#ffffff;resizeWidth=1;whiteSpace=wrap;" vertex="1" parent="VIYR3gMY2XiDIM0IGfiI-26">
          <mxGeometry width="264" height="30" relative="1" as="geometry">
            <mxPoint y="-1" as="offset" />
          </mxGeometry>
        </mxCell>
        <mxCell id="VIYR3gMY2XiDIM0IGfiI-28" value="житлове приміщення" style="strokeWidth=1;shadow=0;dashed=0;align=center;html=1;shape=mxgraph.mockup.forms.anchor;fontSize=17;fontColor=#666666;align=left;spacingLeft=5;resizeWidth=1;whiteSpace=wrap;" vertex="1" parent="VIYR3gMY2XiDIM0IGfiI-26">
          <mxGeometry width="264" height="20" relative="1" as="geometry">
            <mxPoint y="30" as="offset" />
          </mxGeometry>
        </mxCell>
        <mxCell id="VIYR3gMY2XiDIM0IGfiI-29" value="громадське місце" style="strokeWidth=1;shadow=0;dashed=0;align=center;html=1;shape=mxgraph.mockup.forms.anchor;fontSize=17;fontColor=#666666;align=left;spacingLeft=5;resizeWidth=1;whiteSpace=wrap;" vertex="1" parent="VIYR3gMY2XiDIM0IGfiI-26">
          <mxGeometry width="264" height="20" relative="1" as="geometry">
            <mxPoint y="50" as="offset" />
          </mxGeometry>
        </mxCell>
        <mxCell id="VIYR3gMY2XiDIM0IGfiI-30" value="на робочому місці" style="strokeWidth=1;shadow=0;dashed=0;align=center;html=1;shape=mxgraph.mockup.forms.rrect;rSize=0;fontSize=17;fontColor=#666666;align=left;spacingLeft=5;fillColor=#ddeeff;strokeColor=none;resizeWidth=1;whiteSpace=wrap;" vertex="1" parent="VIYR3gMY2XiDIM0IGfiI-26">
          <mxGeometry width="264" height="20" relative="1" as="geometry">
            <mxPoint y="70" as="offset" />
          </mxGeometry>
        </mxCell>
        <mxCell id="VIYR3gMY2XiDIM0IGfiI-31" value="спеціальні випадки" style="strokeWidth=1;shadow=0;dashed=0;align=center;html=1;shape=mxgraph.mockup.forms.anchor;fontSize=17;fontColor=#666666;align=left;spacingLeft=5;resizeWidth=1;whiteSpace=wrap;" vertex="1" parent="VIYR3gMY2XiDIM0IGfiI-26">
          <mxGeometry width="264" height="20" relative="1" as="geometry">
            <mxPoint y="90" as="offset" />
          </mxGeometry>
        </mxCell>
        <mxCell id="VIYR3gMY2XiDIM0IGfiI-32" value="&lt;font style=&quot;font-size: 16px;&quot;&gt;Профіль&lt;/font&gt;" style="rounded=0;whiteSpace=wrap;html=1;fillColor=#3399FF;" vertex="1" parent="1">
          <mxGeometry x="767.0041033935547" y="660.7244491577148" width="223.76" height="40" as="geometry" />
        </mxCell>
        <mxCell id="VIYR3gMY2XiDIM0IGfiI-33" value="&lt;font style=&quot;font-size: 16px;&quot;&gt;Меню&lt;/font&gt;" style="rounded=0;whiteSpace=wrap;html=1;fillColor=#3399FF;" vertex="1" parent="1">
          <mxGeometry x="767.0041033935547" y="603.7244491577148" width="223.76" height="40" as="geometry" />
        </mxCell>
      </root>
    </mxGraphModel>
  </diagram>
</mxfile>
